# xmcd
#
# Track frame offsets:
#	150
#	14693
#	27954
#	45265
#	62065
#	85105
#	96797
#	108744
#	124738
#	137988
#	156945
#	169713
#	190341
#
# Disc length: 2755 seconds
# Revision: 1
# Processed by: cddbd v1.5.2PL0 Copyright (c) Steve Scherf et al.
# Submitted via: dBpowerAMP V12.0
#
DISCID=ad0ac10d
DTITLE=Steve Spurgin - Tumbleweed Town
DYEAR=2002
DGENRE=Bluegrass
TTITLE0=Going Back To San Antone
TTITLE1=Tumbleweed Town
TTITLE2=Blue Hollow Road
TTITLE3=Bullet Bob
TTITLE4=San Jacinto Farewell
TTITLE5=Grandma's Remedy
TTITLE6=Mexico Love
TTITLE7=It's A Great Place To Be (If You're Lonesome)
TTITLE8=If L.A. Was A Lady
TTITLE9=Carmen
TTITLE10=Look At What You've Done
TTITLE11=The Talking Cigarette Blues
TTITLE12=They Don't Play George Jones On MTV 
EXTD=
EXTT0=
EXTT1=
EXTT2=
EXTT3=
EXTT4=
EXTT5=
EXTT6=
EXTT7=
EXTT8=
EXTT9=
EXTT10=
EXTT11=
EXTT12=
PLAYORDER=
